<?xml version="1.0" encoding="utf-8"?>
<!-- Generator: Adobe Illustrator 19.0.0, SVG Export Plug-In . SVG Version: 6.00 Build 0)  -->
<svg version="1.1" id="Layer_1" xmlns="http://www.w3.org/2000/svg" xmlns:xlink="http://www.w3.org/1999/xlink" x="0px" y="0px"
	 viewBox="0 0 120 46" style="enable-background:new 0 0 120 46;" xml:space="preserve">
<style type="text/css">
	.st0{fill:#FFFFFF;}
</style>
<g>
	<path class="st0" d="M65.3,14.9h4.5v4.4h-4.5V14.9z M65.3,20.9h4.5v16.3h-4.5V20.9z"/>
	<path class="st0" d="M73.4,20.9h16.5c2.3,0,4,0.4,5.1,1.2c1.2,0.9,1.8,2.5,1.8,4.7v10.4h-4.5v-9.7c0-2.3-0.5-3.2-2.7-3.2h-2.4v12.9
		h-4.5V24.4h-4.8v12.9h-4.5V20.9z"/>
	<path class="st0" d="M117.7,29.3c0,2.6-0.8,4.6-2.4,6.1c-1.6,1.4-3.7,2.1-6.3,2.1c-5.4,0-8.6-3.1-8.6-8.5c0-2.6,0.8-4.6,2.4-6.1
		c1.6-1.4,3.6-2.2,6.2-2.2C114.4,20.7,117.7,23.9,117.7,29.3 M105,29.2c0,3.3,1.4,4.9,4.1,4.9c2.7,0,4-1.6,4-5c0-3.3-1.3-4.9-4-4.9
		C106.3,24.2,105,25.8,105,29.2"/>
	<g>
		<path class="st0" d="M33.7,16.3L29,11.6c-0.5-0.5-1.3-0.5-1.7,0l-9.8,9.8l7.6,7.6l-1.8,1.8l-7.6-7.6l-3.2,3.2
			c-0.5,0.5-0.5,1.3,0,1.7l8.7,8.7c0.5,0.5,1.3,0.5,1.7,0L33.7,26c0.3-0.3,0.5-0.7,0.5-1.1v-7.5C34.1,17,33.9,16.6,33.7,16.3z"/>
	</g>
	<g>
		<path class="st0" d="M17,15.5l-0.7-0.7c1.7-1.7,4.5-1.7,6.3,0L22,15.5C20.6,14.1,18.4,14.1,17,15.5z"/>
	</g>
	<g>
		<path class="st0" d="M23.7,13.8c-2.3-2.3-6-2.3-8.3,0l-0.7-0.7c2.7-2.7,7-2.7,9.7,0L23.7,13.8z"/>
	</g>
	<g>
		<path class="st0" d="M25.5,11.9c-1.6-1.6-3.7-2.5-6-2.5c-2.3,0-4.4,0.9-6,2.5l-0.7-0.7c1.8-1.8,4.2-2.8,6.7-2.8
			c2.5,0,4.9,1,6.7,2.8L25.5,11.9z"/>
	</g>
	<polygon class="st0" points="61.7,15 51.9,37.4 47.2,37.4 37.8,15 43.1,15 49.7,31.9 56.4,15 	"/>
	<rect x="65.3" y="14.9" class="st0" width="4.5" height="4.4"/>
	<polygon class="st0" points="39.5,15 37.8,15 40.2,20.9 42,20.9 	"/>
	<polygon class="st0" points="41.2,15 39.5,15 42,20.9 43.8,20.9 	"/>
	<g>
		<path class="st0" d="M27,26.8L11.5,11.3c-0.3-0.3-0.7-0.3-0.9,0l-9.4,9.4c-0.3,0.3-0.3,0.7,0,0.9l15.5,15.5c0.3,0.3,0.7,0.3,0.9,0
			l9.4-9.4C27.2,27.4,27.2,27,27,26.8z M23.2,30.9L7.4,15.1l1.8-1.8L25,29.1L23.2,30.9z"/>
	</g>
</g>
</svg>
